PathFileType   4   (X/Y/Z)																																																																																																																							
DataRate	CameraRate	NumFrames	NumMarkers	Units	OrigDataRate	OrigDataStartFrame	OrigNumFrames																																																																																																																
120	120	6	37	mm	120	98	156																																																																																																																
Frame#	Time	Sternum	R.Acromium	L.Acromium	Top.Head	R.ASIS	L.ASIS	V.Sacral	R.Thigh.Upper	R.Thigh.Front	R.Thigh.Rear	R.Knee.Lat	R.Knee.Med	R.Shank.Upper	R.Shank.Front	R.Shank.Rear	R.Ankle.Lat	R.Ankle.Med	R.Heel	R.Midfoot.Sup	R.Midfoot.Lat	R.Toe.Lat	R.Toe.Med	R.Toe.Tip	L.Thigh.Upper	L.Thigh.Front	L.Thigh.Rear	L.Knee.Lat	L.Knee.Med	L.Shank.Upper	L.Shank.Front	L.Shank.Rear	L.Ankle.Lat	L.Ankle.Med	L.Heel	L.Midfoot.Sup	L.Midfoot.Lat	L.Toe.Lat	L.Toe.Med	L.Toe.Tip																																																																															
 	 	X1	Y1	Z1	X2	Y2	Z2	X3	Y3	Z3	X4	Y4	Z4	X5	Y5	Z5	X6	Y6	Z6	X7	Y7	Z7	X8	Y8	Z8	X9	Y9	Z9	X10	Y10	Z10	X11	Y11	Z11	X12	Y12	Z12	X13	Y13	Z13	X14	Y14	Z14	X15	Y15	Z15	X16	Y16	Z16	X17	Y17	Z17	X18	Y18	Z18	X19	Y19	Z19	X20	Y20	Z20	X21	Y21	Z21	X22	Y22	Z22	X23	Y23	Z23	X24	Y24	Z24	X25	Y25	Z25	X26	Y26	Z26	X27	Y27	Z27	X28	Y28	Z28	X29	Y29	Z29	X30	Y30	Z30	X31	Y31	Z31	X32	Y32	Z32	X33	Y33	Z33	X34	Y34	Z34	X35	Y35	Z35	X36	Y36	Z36	X37	Y37	Z37	X38	Y38	Z38	X39	Y39	Z39	
																																																																																																																							
	98	1.025	-1526.345239	-0.001002095	1357.746878	-1588.047298	-161.9453511	1436.699489	-1585.409648	165.1979949	1435.920964	-1444.081704	-10.08809499	1638.10557	-1561.635639	-117.7896216	1020.517414	-1555.382781	119.399185	1013.596572	-1737.835418	-5.611229398	1009.283019	-1534.779608	-173.4115572	693.8153764	-1459.172403	-67.95180237	639.5200669	-1520.3267	-162.9734513	560.2873276	-1545.03551	-142.5943975	458.9210622	-1543.364249	-8.355853302	440.4275579	-1581.488714	-154.6508593	423.6284337	-1498.795879	-93.81404015	382.1091363	-1566.341693	-165.0122006	327.9768874	-1572.467005	-136.9768135	9.113379949	-1563.335355	-37.22329306	25.09009794	-1643.581108	-79.10633289	-17.54653486	-1491.707483	-41.71858376	-5.297441461	-1497.251765	-155.3841374	-26.23041492	-1402.35756	-165.0174344	-51.50850881	-1399.906272	-50.15543807	-37.65746551	-1335.360025	-83.79364801	-37.07147862	-1584.007608	178.8034865	694.714462	-1494.650044	95.03600439	654.1898456	-1587.331479	161.7547942	573.926384	-1607.595201	144.5366564	428.5385622	-1606.291125	15.87918741	429.409253	-1660.307692	162.4477689	417.4269184	-1665.584152	100.5194763	343.1157109	-1708.207288	174.5177999	397.4191213	-1945.168117	136.4325857	138.2505329	-1923.409324	34.31683281	153.2431961	-2006.517453	76.11439987	196.9819478	-1906.615114	48.15109198	44.15403174	-1917.023641	152.6198727	60.6143924	-1902.020177	163.716336	-9.179186843	-1892.390178	55.50675189	-24.44846512	-1863.794656	82.30973808	-68.02536544
	99	1.03333	-1521.17632	-0.001002095	1358.115411	-1582.85401	-161.9453511	1437.087061	-1580.2166	165.1979949	1436.307722	-1438.826266	-10.08809499	1638.448703	-1556.554869	-117.7896216	1020.954645	-1550.300668	119.399185	1014.035015	-1732.752465	-5.611229398	1009.686075	-1531.447374	-173.4115572	693.4422815	-1456.263512	-67.95180237	638.5622576	-1518.030434	-162.9734513	559.8061633	-1543.524614	-142.5943975	458.6345673	-1541.996823	-8.355853302	440.1286583	-1580.096451	-154.6508593	423.5518649	-1497.604422	-93.81404015	381.6350179	-1565.410011	-165.0122006	327.8285186	-1573.070057	-136.9768135	8.998188265	-1563.861612	-37.22329306	24.93076724	-1644.180538	-79.10633289	-17.68793253	-1492.306863	-41.71858376	-5.439455571	-1497.851231	-155.3841374	-26.37240653	-1402.957128	-165.0174344	-51.65088557	-1400.505784	-50.15543807	-37.79985223	-1335.959535	-83.79364801	-37.21412733	-1575.359441	178.8034865	696.0152413	-1485.377262	95.03600439	656.8971348	-1576.788407	161.7547942	575.1898882	-1594.769307	144.5366564	429.5021249	-1593.479049	15.87918741	430.3931622	-1648.251478	162.4477689	418.2867266	-1653.724513	100.5194763	343.9897383	-1696.203838	174.5177999	398.4057203	-1933.849481	136.4325857	139.8649305	-1912.0511	34.31683281	154.7999772	-1996.268325	76.11439987	197.5080597	-1893.469687	48.15109198	46.61309866	-1904.190224	152.6198727	62.87197272	-1887.858508	163.716336	-6.622794476	-1877.939071	55.50675189	-21.70564947	-1848.517727	82.30973808	-64.72930138
	100	1.04167	-1516.081626	-0.001002095	1358.467945	-1577.732031	-161.9453511	1437.460898	-1575.09489	165.1979949	1436.680648	-1433.634731	-10.08809499	1638.77277	-1551.554181	-117.7896216	1021.401058	-1545.297458	119.399185	1014.483708	-1727.747658	-5.611229398	1010.068275	-1528.185306	-173.4115572	693.0786706	-1453.429523	-67.95180237	637.6169454	-1515.805655	-162.9734513	559.3424728	-1542.084061	-142.5943975	458.3717321	-1540.699904	-8.355853302	439.854526	-1578.765505	-154.6508593	423.495648	-1496.470155	-93.81404015	381.1939671	-1564.526315	-165.0122006	327.7047506	-1573.675422	-136.9768135	8.913675345	-1564.392661	-37.22329306	24.80307114	-1644.783626	-79.10633289	-17.79477439	-1492.909405	-41.71858376	-5.553073729	-1498.454706	-155.3841374	-26.48577729	-1403.561731	-165.0174344	-51.76849029	-1401.109769	-50.15543807	-37.91756633	-1336.563494	-83.79364801	-37.33472135	-1566.840348	178.8034865	697.3536097	-1476.264361	95.03600439	659.6308124	-1566.401838	161.7547942	576.5206026	-1582.129046	144.5366564	430.5723513	-1580.852712	15.87918741	431.4832227	-1636.272094	162.4477689	419.1718904	-1641.804103	100.5194763	344.8792699	-1684.24022	174.5177999	399.3289539	-1922.091012	136.4325857	140.9768835	-1900.280783	34.31683281	155.8946225	-1985.807962	76.11439987	197.2354307	-1879.478831	48.15109198	48.80711399	-1890.579876	152.6198727	64.80860434	-1872.613562	163.716336	-4.281620508	-1862.341132	55.50675189	-19.12631414	-1831.913193	82.30973808	-61.44404885
	101	1.05	-1511.051378	-0.001002095	1358.80882	-1572.672516	-161.9453511	1437.824606	-1570.035664	165.1979949	1437.043379	-1428.50065	-10.08809499	1639.083083	-1546.620926	-117.7896216	1021.856519	-1540.360667	119.399185	1014.94237	-1722.808585	-5.611229398	1010.433632	-1524.987014	-173.4115572	692.7245721	-1450.665009	-67.95180237	636.6828938	-1513.648262	-162.9734513	558.8961033	-1540.711468	-142.5943975	458.132876	-1539.471424	-8.355853302	439.605461	-1577.493508	-154.6508593	423.460352	-1495.390799	-93.81404015	380.7859787	-1563.68878	-165.0122006	327.6058787	-1574.283192	-136.9768135	8.859562231	-1564.928485	-37.22329306	24.70670665	-1645.389819	-79.10633289	-17.86913289	-1493.514837	-41.71858376	-5.636875628	-1499.06144	-155.3841374	-26.56923435	-1404.170037	-165.0174344	-51.85784764	-1401.717214	-50.15543807	-38.00707616	-1337.170903	-83.79364801	-37.4282446	-1558.455763	178.8034865	698.7241336	-1467.318482	95.03600439	662.3783658	-1556.186055	161.7547942	577.9116495	-1569.699583	144.5366564	431.7418109	-1568.4372	15.87918741	432.6719207	-1624.385192	162.4477689	420.0710591	-1629.828058	100.5194763	345.7718545	-1672.329475	174.5177999	400.1705827	-1909.870114	136.4325857	141.533315	-1888.0778	34.31683281	156.4772121	-1975.046124	76.11439987	196.1495041	-1864.721161	48.15109198	50.66668121	-1876.253116	152.6198727	66.36046742	-1856.415174	163.716336	-2.215794339	-1845.742976	55.50675189	-16.77573788	-1814.175846	82.30973808	-58.2506263
	102	1.05833	-1506.075345	-0.001002095	1359.14038	-1567.665955	-161.9453511	1438.179963	-1565.029405	165.1979949	1437.397718	-1423.416357	-10.08809499	1639.382735	-1541.743039	-117.7896216	1022.318587	-1535.478435	119.399185	1015.408374	-1717.923483	-5.611229398	1010.784947	-1521.846181	-173.4115572	692.3788019	-1447.964371	-67.95180237	635.7580615	-1511.55355	-162.9734513	558.4658149	-1539.403321	-142.5943975	457.9171436	-1538.308094	-8.355853302	439.3806043	-1576.277067	-154.6508593	423.4453325	-1494.363097	-93.81404015	380.4097844	-1562.894627	-165.0122006	327.5309914	-1574.892727	-136.9768135	8.834425017	-1565.468318	-37.22329306	24.64021667	-1645.997888	-79.10633289	-17.91406659	-1494.122186	-41.71858376	-5.690749869	-1499.670021	-155.3841374	-26.62278203	-1404.780107	-165.0174344	-51.91698132	-1402.326469	-50.15543807	-38.06635426	-1337.780124	-83.79364801	-37.49132239	-1550.209579	178.8034865	700.1193999	-1458.544465	95.03600439	665.1261749	-1546.15245	161.7547942	579.3537276	-1557.501614	144.5366564	432.9999316	-1556.253132	15.87918741	433.9486191	-1612.603805	162.4477689	420.9718079	-1617.80162	100.5194763	346.655058	-1660.4822	174.5177999	400.9133306	-1897.168622	136.4325857	141.4941152	-1875.425708	34.31683281	156.509797	-1963.901237	76.11439987	194.2502501	-1849.274984	48.15109198	52.13173828	-1861.2711	152.6198727	67.47364488	-1839.391273	163.716336	-0.478696929	-1828.288436	55.50675189	-14.71297882	-1795.495126	82.30973808	-55.22530948
	103	1.06667	-1501.143411	-0.001002095	1359.463056	-1562.702728	-161.9453511	1438.527014	-1560.066488	165.1979949	1437.743725	-1418.373493	-10.08809499	1639.672667	-1536.909571	-117.7896216	1022.782906	-1530.640046	119.399185	1015.877157	-1713.081754	-5.611229398	1011.123769	-1518.756722	-173.4115572	692.0391659	-1445.321946	-67.95180237	634.8398316	-1509.516292	-162.9734513	558.0494617	-1538.155013	-142.5943975	457.722652	-1537.205424	-8.355853302	439.1780815	-1575.111806	-154.6508593	423.4488693	-1493.382838	-93.81404015	380.0630107	-1562.140133	-165.0122006	327.4781119	-1575.502585	-136.9768135	8.835834895	-1566.010591	-37.22329306	24.6011322	-1646.605886	-79.10633289	-17.93341473	-1494.729724	-41.71858376	-5.715815502	-1500.278347	-155.3841374	-26.6476388	-1405.389386	-165.0174344	-51.94541027	-1402.935226	-50.15543807	-38.0948756	-1338.388859	-83.79364801	-37.52227362	-1542.104225	178.8034865	701.5305302	-1449.944981	95.03600439	667.8601795	-1536.309449	161.7547942	580.8357562	-1545.551105	144.5366564	434.3337803	-1544.316406	15.87918741	435.3003379	-1600.938261	162.4477689	421.861585	-1605.730329	100.5194763	347.5175693	-1648.70645	174.5177999	401.5420551	-1883.973267	136.4325857	140.8347163	-1862.312642	34.31683281	155.9688614	-1952.304942	76.11439987	191.5525128	-1833.212697	48.15109198	53.15494606	-1845.691115	152.6198727	68.10720271	-1821.659236	163.716336	0.885804081	-1810.108905	55.50675189	-12.98782516	-1776.042578	82.30973808	-52.43570845
